name Walk6.mot
datacolumns 19
datarows 15
range 1.89700000 1.91100000
endheader

                time	   L_ground_force_vx	   L_ground_force_vy	   L_ground_force_vz	   L_ground_force_px	   L_ground_force_py	   L_ground_force_pz	   R_ground_force_vx	   R_ground_force_vy	   R_ground_force_vz	   R_ground_force_px	   R_ground_force_py	   R_ground_force_pz	   L_ground_torque_x	   L_ground_torque_y	   L_ground_torque_z	   R_ground_torque_x	   R_ground_torque_y	   R_ground_torque_z	
          1.89700000	         -0.00000000	         -0.00000001	          0.00000000	          0.00000000	          0.00000000	         -0.00000000	         -9.38435255	         23.14672234	          6.17141554	          0.76596130	          0.00000000	          0.02729919	          0.00000000	          0.00000000	          0.00000000	          0.00000000	          1.31141556	          0.00000000	
          1.89800000	         -0.00000000	         -0.00000001	          0.00000000	          0.00000000	          0.00000000	         -0.00000000	         -9.23060699	         22.64542717	          6.11405261	          0.76367634	          0.00000000	          0.02681980	          0.00000000	          0.00000000	          0.00000000	          0.00000000	          1.29738644	          0.00000000	
          1.89900000	         -0.00000000	         -0.00000001	          0.00000000	          0.00000000	          0.00000000	         -0.00000000	         -9.07230774	         22.16263662	          6.05379628	          0.76092053	          0.00000000	          0.02635773	          0.00000000	          0.00000000	          0.00000000	          0.00000000	          1.28227837	          0.00000000	
          1.90000000	         -0.00000000	         -0.00000001	          0.00000000	          0.00000000	          0.00000000	         -0.00000000	         -8.90981175	         21.69627010	          5.99058700	          0.75768449	          0.00000000	          0.02591173	          0.00000000	          0.00000000	          0.00000000	          0.00000000	          1.26614730	          0.00000000	
          1.90100000	         -0.00000000	         -0.00000000	          0.00000000	          0.00000000	          0.00000000	         -0.00000000	         -8.74345491	         21.24433888	          5.92436945	          0.75395889	          0.00000000	          0.02548054	          0.00000000	          0.00000000	          0.00000000	          0.00000000	          1.24904511	          0.00000000	
          1.90200000	         -0.00000000	         -0.00000000	          0.00000000	          0.00000000	          0.00000000	         -0.00000000	         -8.57355253	         20.80494739	          5.85509310	          0.74973456	          0.00000000	          0.02506292	          0.00000000	          0.00000000	          0.00000000	          0.00000000	          1.23101978	          0.00000000	
          1.90300000	         -0.00000000	         -0.00000000	          0.00000000	          0.00000000	          0.00000000	         -0.00000000	         -8.40039979	         20.37629320	          5.78271246	          0.74500258	          0.00000000	          0.02465761	          0.00000000	          0.00000000	          0.00000000	          0.00000000	          1.21211560	          0.00000000	
          1.90400000	         -0.00000000	         -0.00000000	          0.00000000	          0.00000000	          0.00000000	         -0.00000000	         -8.22427238	         19.95666654	          5.70718728	          0.73975443	          0.00000000	          0.02426327	          0.00000000	          0.00000000	          0.00000000	          0.00000000	          1.19237370	          0.00000000	
          1.90500000	         -0.00000000	         -0.00000000	          0.00000000	          0.00000000	          0.00000000	         -0.00000000	         -8.04542732	         19.54445091	          5.62848283	          0.73398207	          0.00000000	          0.02387851	          0.00000000	          0.00000000	          0.00000000	          0.00000000	          1.17183265	          0.00000000	
          1.90600000	         -0.00000000	         -0.00000000	          0.00000000	          0.00000000	          0.00000000	         -0.00000000	         -7.86410427	         19.13812522	          5.54657046	          0.72767814	          0.00000000	          0.02350186	          0.00000000	          0.00000000	          0.00000000	          0.00000000	          1.15052914	          0.00000000	
          1.90700000	         -0.00000000	         -0.00000000	          0.00000000	          0.00000000	          0.00000000	         -0.00000000	         -7.68052697	         18.73626739	          5.46142846	          0.72083602	          0.00000000	          0.02313178	          0.00000000	          0.00000000	          0.00000000	          0.00000000	          1.12849880	          0.00000000	
          1.90800000	         -0.00000000	         -0.00000000	          0.00000000	          0.00000000	          0.00000000	         -0.00000000	         -7.49490498	         18.33755848	          5.37304340	          0.71344997	          0.00000000	          0.02276671	          0.00000000	          0.00000000	          0.00000000	          0.00000000	          1.10577687	          0.00000000	
          1.90900000	         -0.00000000	         -0.00000000	          0.00000000	          0.00000000	          0.00000000	         -0.00000000	         -7.30743527	         17.94078623	          5.28141157	          0.70551520	          0.00000000	          0.02240512	          0.00000000	          0.00000000	          0.00000000	          0.00000000	          1.08239869	          0.00000000	
          1.91000000	         -0.00000000	         -0.00000000	          0.00000000	          0.00000000	          0.00000000	         -0.00000000	         -7.11830395	         17.54484739	          5.18654060	          0.69702798	          0.00000000	          0.02204550	          0.00000000	          0.00000000	          0.00000000	          0.00000000	          1.05840001	          0.00000000	
          1.91100000	         -0.00000000	         -0.00000000	          0.00000000	          0.00000000	          0.00000000	         -0.00000000	         -6.92768808	         17.14874840	          5.08845077	          0.68798576	          0.00000000	          0.02168638	          0.00000000	          0.00000000	          0.00000000	          0.00000000	          1.03381691	          0.00000000	
